# xmcd CD database file
#
# Track frame offsets:
#	150
#	19644
#	40295
#	64897
#	86107
#	115562
#	136987
#	161567
#	180705
#	206260
#	226080
#	239340
#
# Disc length: 3577 seconds
#
# Revision: 1
# Processed by: cddbd v1.5.2PL0 Copyright (c) Steve Scherf et al.
# Submitted via: CDex 1.51
#
DISCID=950df70c
DTITLE=Tommy Berndtsson Trio - Multitud
DYEAR=2003
DGENRE=Jazz
TTITLE0=A child is born
TTITLE1=Det känns
TTITLE2=Canto de ossanha
TTITLE3=Äng
TTITLE4=Tic tac toe
TTITLE5=Nature boy
TTITLE6=Mot sjön
TTITLE7=Still
TTITLE8=Stella by starlight
TTITLE9=Aint it funny how time slip away
TTITLE10=Dagdröm
TTITLE11=At last
EXTD=YEAR: 2003
EXTT0=
EXTT1=
EXTT2=
EXTT3=
EXTT4=
EXTT5=
EXTT6=
EXTT7=
EXTT8=
EXTT9=
EXTT10=
EXTT11=
PLAYORDER=
